<svg xmlns="http://www.w3.org/2000/svg" xmlns:xlink="http://www.w3.org/1999/xlink" version="1.1" id="Layer_1" x="0px" y="0px" enable-background="new 0 0 1024 816" xml:space="preserve" viewBox="295.85 120.99 412.52 421.62">
  <path fill="#000000" opacity="1.000000" stroke="none" d=" M441.171326,155.133652   C460.251099,144.136139 479.060883,133.402023 497.753510,122.467651   C501.191711,120.456474 503.738647,120.510925 507.283417,122.571785   C563.739014,155.394028 620.299133,188.036270 676.837646,220.715897   C686.068481,226.051407 695.271851,231.436615 704.570312,236.651917   C707.195801,238.124481 708.374146,239.939178 708.370483,243.004791   C708.312317,291.328766 708.339355,339.652893 708.326782,387.976959   C708.326477,389.264252 708.550781,390.661560 706.676086,392.441528   C693.188171,384.786621 679.421387,376.973419 665.772400,369.227081   C663.595520,371.301849 664.282654,373.429504 664.278442,375.318298   C664.226562,398.813660 664.157104,422.309845 664.340027,445.803925   C664.371277,449.812561 663.128052,452.186279 659.643860,454.189575   C610.545959,482.418793 561.375549,510.528168 512.605469,539.315063   C504.645386,544.013611 499.379211,543.498047 491.709961,538.990906   C442.877991,510.293060 393.704315,482.175842 344.574524,453.987061   C341.229614,452.067932 339.982269,449.844666 339.998047,446.041260   C340.094299,422.879791 339.980072,399.717438 339.922272,376.555389   C339.917389,374.601501 340.269562,372.568237 339.109131,370.828430   C336.708435,369.923004 335.116821,371.462585 333.467651,372.400513   C322.752319,378.494415 312.099060,384.697296 301.394196,390.809784   C296.913483,393.368317 295.926727,392.808319 295.924835,387.626526   C295.907471,339.802429 295.974365,291.978180 295.847168,244.154419   C295.835968,239.944122 297.759766,237.940475 301.065002,236.037308   C347.694427,209.187668 394.271332,182.246826 441.171326,155.133652  M662.747803,303.500000   C662.756287,292.337341 662.653320,281.172821 662.839539,270.013123   C662.897156,266.562286 661.664795,264.584412 658.672363,262.894775   C643.878662,254.541672 629.201416,245.982269 614.484802,237.492630   C578.846985,216.934113 543.175659,196.433121 507.620850,175.731949   C503.635254,173.411407 500.588348,173.455139 496.706055,175.823517   C486.613464,181.980392 476.278931,187.740723 466.041168,193.659668   C426.243225,216.668762 386.454407,239.693680 346.628052,262.653503   C343.837708,264.262146 342.075806,265.918762 342.092407,269.565399   C342.227448,299.221954 342.142609,328.879456 342.182404,358.536591   C342.189850,364.069153 343.133331,364.604340 347.954285,361.863403   C358.524506,355.853668 368.987946,349.654480 379.604980,343.729858   C382.739105,341.980927 383.977081,339.767273 384.189301,336.193817   C385.029724,322.040680 384.425720,307.886932 384.492157,293.735931   C384.505707,290.848785 385.518860,289.206177 387.978882,287.793884   C424.958893,266.564148 461.902100,245.270233 498.820557,223.933670   C501.175079,222.572906 503.035217,222.125595 505.667969,223.656311   C542.099304,244.838272 578.576843,265.941437 615.137024,286.899994   C618.981384,289.103821 620.372559,291.680145 620.293945,296.065063   C620.055115,309.389008 620.372559,322.722260 620.205322,336.048523   C620.158997,339.738678 621.585693,341.844482 624.660278,343.584656   C635.676758,349.819733 646.584412,356.246857 657.561035,362.552795   C658.922546,363.334900 660.211243,364.692078 662.746887,363.600128   C662.746887,344.057220 662.746887,324.278625 662.747803,303.500000  M386.223022,356.510681   C386.221680,377.671570 386.283234,398.832794 386.157715,419.992950   C386.136505,423.565521 387.237793,425.745209 390.442322,427.582214   C424.115417,446.885437 457.873657,466.052307 491.187714,485.960846   C499.138672,490.712341 504.745453,491.154297 512.972717,486.221283   C546.398376,466.179504 580.364319,447.037231 614.196167,427.677002   C617.495239,425.789093 618.766418,423.583679 618.736816,419.728668   C618.553833,395.903137 618.565735,372.075256 618.681824,348.248993   C618.702637,343.980347 617.477539,341.100006 613.554810,338.935913   C602.763428,332.982605 592.172302,326.666779 581.473389,320.544403   C580.095764,319.756012 578.765625,318.515320 576.703735,319.210938   C575.824646,321.368805 576.121033,323.716400 576.118713,326.002930   C576.095398,348.996674 576.053589,371.990662 576.163269,394.983948   C576.180969,398.682739 575.167603,401.220367 571.791260,403.146393   C549.947266,415.607361 528.168823,428.183929 506.425873,440.820648   C503.667114,442.424042 501.504761,442.499237 498.634277,440.828339   C476.896423,428.174591 455.078857,415.656555 433.202637,403.243347   C429.893311,401.365540 428.611969,399.119873 428.636505,395.287689   C428.787994,371.628357 428.718384,347.967499 428.674652,324.307281   C428.671387,322.545441 429.213776,320.652588 427.960022,318.961975   C425.750031,318.590942 424.170563,320.019318 422.505035,320.967407   C414.254181,325.664124 406.385345,331.196442 397.754578,335.017273   C388.262604,339.219360 384.209167,345.380371 386.223022,356.510681  M519.573730,347.034637   C537.169067,336.840729 554.764404,326.646790 573.014343,316.073639   C570.842468,314.586060 569.804626,313.769318 568.672607,313.115662   C548.189331,301.287567 527.649353,289.556458 507.244659,277.594421   C503.625244,275.472565 500.855103,275.476440 497.216980,277.619843   C477.844330,289.033234 458.310028,300.171967 438.849823,311.437195   C436.727417,312.665771 434.444580,313.738678 432.995697,315.811646   C433.316406,317.253265 434.528839,317.677734 435.478027,318.228333   C456.802216,330.598053 478.162262,342.905975 499.474823,355.295624   C501.660187,356.566040 503.449738,356.305298 505.494629,355.092285   C509.935059,352.458374 514.462280,349.970764 519.573730,347.034637  z"/>
</svg>