<svg id="visual" viewBox="0 0 540 960" width="540" height="960" xmlns="http://www.w3.org/2000/svg" xmlns:xlink="http://www.w3.org/1999/xlink" version="1.1"><path d="M0 782L22.5 757.2C45 732.3 90 682.7 135 689.7C180 696.7 225 760.3 270 808.5C315 856.7 360 889.3 405 865C450 840.7 495 759.3 517.5 718.7L540 678L540 961L517.5 961C495 961 450 961 405 961C360 961 315 961 270 961C225 961 180 961 135 961C90 961 45 961 22.5 961L0 961Z" fill="#004d4d" stroke-linecap="round" stroke-linejoin="miter"></path></svg>